#!OML:ASF F:\VICON\USERDATA\INSTALL\rory3\rory3.ASF
:FULLY-SPECIFIED
:DEGREES
1
root 0.4106850000000006 18.0493 -29.325899999999976 -3.454780000000001 -0.9963840000000016 -0.7637760000000049
lfemur -12.478699999999993 0.003244920000002871 -23.032000000000004
ltibia 22.999200000000005
lfoot -4.779719999999997 -3.8768199999999995
ltoes -28.35930000000002
rfemur -13.5872 -1.3730699999999914 22.791399999999996
rtibia 71.87850000000002
rfoot 4.370459999999989 -6.678689999999998
rtoes 2.5044800000000005
lowerback nan 1.0060699999999985 -0.4383839999999999
upperback 0.7028620000000011 1.3257600000000014 0.7980750000000001
thorax -6.36137 0.6727169999999995 0.8514590000000007
lowerneck -16.8143 -3.48249 -1.8858099999999998
upperneck 21.4695 -4.57105 0.9233460000000007
head 9.6373 -2.17138 0.03220040000000027
lclavicle 1.4026700000000024e-14 -3.6775200000000014e-15
lhumerus -32.4499 9.248410000000005 80.3469
lradius 21.328200000000006
lwrist 5.319760000000004
lhand -25.309200000000008 20.927399999999995
lfingers nan
lthumb 1.2129500000000086 50.9037
rclavicle 1.4026700000000024e-14 -3.6775200000000014e-15
rhumerus -25.990400000000005 -20.0858 -79.5672
rradius 25.467599999999997
rwrist 5.997790000000002
rhand -18.4138 nan
rfingers nan
rthumb 7.871009999999999 -6.681579999999999
2
root 0.443426 18.0621 -28.856200000000015 -3.7221600000000006 -0.5404559999999998 -0.6221049999999964
lfemur -10.7717 -0.2698950000000022 -23.408199999999997
ltibia 23.712400000000002
lfoot -6.405289999999999 -2.7892
ltoes -27.523200000000042
rfemur -17.021499999999993 -2.0955299999999983 22.668000000000006
rtibia 73.92979999999997
rfoot 1.0303299999999869 -8.26205
rtoes 0.8861859999999964
lowerback nan 0.7645390000000006 -0.6830270000000032
upperback 0.4319079999999999 0.9691550000000002 0.797364
thorax -7.013730000000001 0.5085309999999995 1.0453699999999992
lowerneck -16.4147 -3.27909 -1.7866799999999998
upperneck 21.7485 -4.3165 0.875673
head 9.65378 -2.05236 0.037667200000000095
lclavicle -6.417019999999998e-15 -2.9817699999999995e-15
lhumerus -31.6961 8.275509999999999 80.1892
lradius 21.345899999999993
lwrist 5.557469999999998
lhand -25.29069999999999 17.822399999999995
lfingers nan
lthumb 1.2307900000000047 47.7986
rclavicle -6.417019999999998e-15 -2.9817699999999995e-15
rhumerus -27.804199999999998 -22.089999999999996 -78.4565
rradius 24.8012
rwrist 6.26986
rhand -15.8994 nan
rfingers nan
rthumb 10.297200000000002 -8.644699999999997
3
root 0.4680459999999998 18.0629 -28.37870000000001 -3.925509999999999 -0.1479599999999999 -0.6532850000000008
lfemur -8.918609999999997 -0.47198400000000107 -23.56579999999999
ltibia 23.828299999999984
lfoot -7.678159999999999 -1.9498900000000012
ltoes -27.342000000000027
rfemur -20.280799999999992 -2.6445500000000006 22.834199999999992
rtibia 74.38539999999993
rfoot -1.559940000000008 -8.4934
rtoes 0.17447699999999688
lowerback nan 0.6593589999999988 -0.7583889999999973
upperback 0.979035000000001 0.8199570000000006 0.8294929999999993
thorax -6.20717 0.43295099999999986 1.1549899999999997
lowerneck -17.3256 -3.37723 -1.71869
upperneck 22.2088 -4.48162 0.9379760000000004
head 9.98997 -2.10573 0.0055708899999998285
lclavicle -7.348819999999991e-15 -5.963540000000008e-15
lhumerus -29.3766 7.436290000000004 80.4271
lradius 21.6525
lwrist 5.572249999999996
lhand -25.418800000000005 21.614999999999995
lfingers nan
lthumb 1.1071000000000066 51.591899999999995
rclavicle -7.348819999999991e-15 -5.963540000000008e-15
rhumerus -28.2144 -23.731199999999994 -78.0857
rradius 24.1668
rwrist 6.726470000000004
rhand -16.220399999999998 nan
rfingers nan
rthumb 9.98754 -8.566440000000002
4
root 0.5020770000000003 18.0405 -27.90489999999997 -3.7179499999999974 1.1465300000000005 -0.18259399999999992
lfemur -7.69351 -0.9692080000000012 -24.335899999999988
ltibia 24.288500000000003
lfoot -9.422350000000002 -1.65891
ltoes -24.867500000000003
rfemur -23.538000000000018 -3.8253099999999955 22.328299999999995
rtibia 73.62359999999998
rfoot -4.101859999999998 -7.3692800000000025
rtoes 1.98465
lowerback nan 0.06532999999999997 -1.402170000000001
upperback 0.45995100000000094 -0.04859939999999913 0.9942039999999995
thorax -6.69715 0.036451900000000065 1.85203
lowerneck -15.8734 -3.0879600000000003 -2.14334
upperneck 22.1081 -3.976890000000001 0.8953820000000009
head 9.68347 -1.92473 0.15420299999999998
lclavicle -7.851990000000002e-15 2.9817699999999936e-15
lhumerus -29.3268 6.895939999999996 80.5977
lradius 22.499099999999995
lwrist 6.2426699999999995
lhand -25.204200000000007 21.815099999999997
lfingers nan
lthumb 1.3143800000000083 51.790800000000004
rclavicle -7.851990000000002e-15 2.9817699999999936e-15
rhumerus -30.3975 -23.119000000000003 -77.1703
rradius 24.293899999999994
rwrist 6.405389999999997
rhand -16.230599999999995 nan
rfingers nan
rthumb 9.977670000000003 0.8348980000000044
5
root 0.5191950000000001 18.0115 -27.442700000000066 -3.7945599999999997 1.6081800000000024 0.10221900000000472
lfemur -6.311519999999996 -0.88564 -24.7796
ltibia 24.996500000000008
lfoot -10.808499999999999 -1.3174600000000039
ltoes -21.618600000000008
rfemur -26.128299999999985 -3.8881199999999936 22.1867
rtibia 71.28629999999993
rfoot -7.364810000000001 -7.1999900000000014
rtoes -2.6814099999999943
lowerback nan 0.06638500000000008 -1.6412399999999965
upperback 0.9488129999999977 -0.09761709999999918 0.8003869999999987
thorax -6.31574 0.008942120000000192 1.7902200000000006
lowerneck -17.9581 -3.24717 -1.4631000000000012
upperneck 22.618000000000002 -4.27589 0.5639569999999993
head 10.237299999999998 -2.02662 -0.1545779999999994
lclavicle 9.007429999999982e-15 -1.2921000000000008e-14
lhumerus -26.9688 4.22591 81.0729
lradius 23.377599999999997
lwrist 8.17307
lhand -25.13179999999999 18.646
lfingers nan
lthumb 1.3842500000000064 48.6213
rclavicle 9.007429999999982e-15 -1.2921000000000008e-14
rhumerus -30.6163 -24.1678 -77.3258
rradius 24.362499999999997
rwrist 6.212749999999995
rhand -17.1479 nan
rfingers nan
rthumb 9.092649999999999 -6.34201
6
root 0.5410199999999998 17.9621 -26.974799999999966 -3.545810000000002 2.1593399999999994 0.07584769999999841
lfemur -5.33054 -1.1547700000000014 -24.886800000000004
ltibia 25.86779999999999
lfoot -12.568899999999996 -0.6454350000000013
ltoes -21.448899999999984
rfemur -28.585900000000027 -4.029380000000003 22.3801
rtibia 67.56030000000001
rfoot -9.354349999999997 -7.065199999999998
rtoes -2.484230000000008
lowerback nan -0.4635579999999999 -1.9062
upperback 0.37374400000000013 -0.8167590000000005 1.1871000000000005
thorax -6.9516599999999995 -0.3148579999999993 2.4902799999999994
lowerneck -16.1907 -2.909919999999999 -2.00257
upperneck 21.9423 -3.631170000000001 0.38886799999999844
head 9.66527 -1.80988 -0.0031399700000000197
lclavicle 1.7257000000000048e-14 -3.240189999999995e-14
lhumerus -27.221200000000007 3.95035 81.1772
lradius 24.8643
lwrist 8.649199999999999
lhand -26.254499999999997 20.913000000000004
lfingers nan
lthumb 0.2999029999999965 50.8926
rclavicle 1.7257000000000048e-14 -3.240189999999995e-14
rhumerus -32.2585 -22.3982 -76.8909
rradius 24.269900000000007
rwrist 5.206870000000002
rhand -15.172099999999997 nan
rfingers nan
rthumb 10.998800000000001 -13.030800000000003
7
root 0.5569020000000002 17.9037 -26.50679999999995 -3.5178100000000008 2.5020900000000035 0.679909000000007
lfemur -3.6062499999999975 -0.8481789999999985 -25.639899999999994
ltibia 25.792899999999996
lfoot -13.986199999999997 -0.5151209999999975
ltoes -21.319100000000027
rfemur -30.23670000000002 -4.090819999999995 21.8107
rtibia 62.5523
rfoot -10.948200000000002 -8.1146
rtoes -3.224260000000008
lowerback nan -0.5639299999999987 -2.713600000000005
upperback 0.27390399999999987 -1.0807600000000033 1.2168400000000004
thorax -7.266650000000002 -0.4084730000000001 3.0412599999999963
lowerneck -16.1804 -2.8641600000000005 -2.07315
upperneck 21.8413 -3.5144199999999994 0.25447699999999807
head 9.62516 -1.7773799999999993 -0.021723699999999818
lclavicle -9.044700000000006e-15 8.746530000000005e-15
lhumerus -26.06780000000001 3.4557399999999996 81.2313
lradius 25.5401
lwrist 8.662639999999996
lhand -27.821299999999997 16.875899999999998
lfingers nan
lthumb -1.2132899999999993 46.8522
rclavicle -9.044700000000006e-15 8.746530000000005e-15
rhumerus -33.306799999999996 -22.3973 -76.308
rradius 24.263999999999992
rwrist 5.870699999999998
rhand -17.7863 nan
rfingers nan
rthumb 8.47653 -5.5463700000000005
8
root 0.5769499999999996 17.9039 -26.01980000000008 -3.0449699999999997 2.887210000000005 1.0329700000000077
lfemur -1.5558399999999892 -1.0664900000000004 -26.119200000000006
ltibia 24.33630000000001
lfoot -14.625000000000009 -0.1210999999999971
ltoes -20.861999999999988
rfemur -31.28690000000003 -4.00593000000001 21.490500000000004
rtibia 55.70479999999996
rfoot -10.992799999999999 -9.954160000000002
rtoes -3.196599999999992
lowerback nan -0.9406580000000005 -3.2516800000000066
upperback 0.14445000000000008 -1.640589999999998 1.4085800000000004
thorax -7.116750000000001 -0.6609630000000006 3.6484499999999978
lowerneck -15.8953 -2.6866899999999996 -2.453679999999999
upperneck 21.467 -3.1579799999999985 0.2043869999999981
head 9.44299 -1.6504099999999995 0.07726819999999984
lclavicle 1.7890599999999964e-15 -3.1805500000000008e-15
lhumerus -25.35780000000001 3.58708 81.2091
lradius 26.5727
lwrist 9.229129999999996
lhand -26.5446 23.48919999999999
lfingers nan
lthumb 0.01974229999999766 53.468999999999994
rclavicle 1.7890599999999964e-15 -3.1805500000000008e-15
rhumerus -33.97890000000001 -21.877200000000002 -75.961
rradius 24.1174
rwrist 5.919399999999998
rhand -17.9604 nan
rfingers nan
rthumb 8.30856 -6.229279999999999
